<mxfile host="app.diagrams.net" modified="2022-04-29T17:36:43.995Z" agent="5.0 (Windows NT 10.0; Win64; x64) AppleWebKit/537.36 (KHTML, like Gecko) Chrome/100.0.4896.127 Safari/537.36" etag="g-qCliM_VeRUVM75theT" version="17.4.6" type="github">
  <diagram id="JWDJsJjKs2mHcT0vwFwG" name="Page-1">
    <mxGraphModel dx="2624" dy="3211" grid="1" gridSize="10" guides="1" tooltips="1" connect="1" arrows="1" fold="1" page="1" pageScale="1" pageWidth="850" pageHeight="1100" math="1" shadow="0">
      <root>
        <mxCell id="0" />
        <mxCell id="1" parent="0" />
        <mxCell id="5gJW-pD-rKpjJvPLWltT-1" value="&lt;font style=&quot;font-size: 40px&quot;&gt;DENSITATEA&lt;br&gt;CONFIGURATIILOR&lt;br&gt;GESTURALE&lt;br&gt;CARTATE-de-ACCESIBILE&lt;br&gt;CONDUSIVE la&amp;nbsp;&lt;br&gt;EXTREME QUALICE&lt;br&gt;DEZIRABILE&lt;br&gt;&lt;/font&gt;" style="text;html=1;align=center;verticalAlign=middle;resizable=0;points=[];autosize=1;strokeColor=none;fillColor=none;" vertex="1" parent="1">
          <mxGeometry x="-50" y="40" width="500" height="170" as="geometry" />
        </mxCell>
        <mxCell id="5gJW-pD-rKpjJvPLWltT-2" value="" style="shape=partialRectangle;whiteSpace=wrap;html=1;bottom=0;right=0;fillColor=none;fontSize=40;strokeWidth=2;" vertex="1" parent="1">
          <mxGeometry x="-60" y="-40" width="40" height="40" as="geometry" />
        </mxCell>
        <mxCell id="5gJW-pD-rKpjJvPLWltT-3" value="" style="shape=partialRectangle;whiteSpace=wrap;html=1;bottom=0;right=0;fillColor=none;fontSize=40;strokeWidth=2;rotation=90;" vertex="1" parent="1">
          <mxGeometry x="410" y="-40" width="40" height="40" as="geometry" />
        </mxCell>
        <mxCell id="5gJW-pD-rKpjJvPLWltT-4" value="" style="shape=partialRectangle;whiteSpace=wrap;html=1;bottom=0;right=0;fillColor=none;fontSize=40;strokeWidth=2;rotation=-180;" vertex="1" parent="1">
          <mxGeometry x="405" y="250" width="40" height="40" as="geometry" />
        </mxCell>
        <mxCell id="5gJW-pD-rKpjJvPLWltT-5" value="" style="shape=partialRectangle;whiteSpace=wrap;html=1;bottom=0;right=0;fillColor=none;fontSize=40;strokeWidth=2;rotation=-90;" vertex="1" parent="1">
          <mxGeometry x="-60" y="250" width="40" height="40" as="geometry" />
        </mxCell>
        <mxCell id="5gJW-pD-rKpjJvPLWltT-6" value="ROLUL" style="text;html=1;align=center;verticalAlign=middle;resizable=0;points=[];autosize=1;strokeColor=none;fillColor=none;fontSize=40;" vertex="1" parent="1">
          <mxGeometry x="-50" y="480" width="150" height="50" as="geometry" />
        </mxCell>
        <mxCell id="5gJW-pD-rKpjJvPLWltT-7" value="MODUL" style="text;html=1;align=center;verticalAlign=middle;resizable=0;points=[];autosize=1;strokeColor=none;fillColor=none;fontSize=40;" vertex="1" parent="1">
          <mxGeometry x="290" y="480" width="160" height="50" as="geometry" />
        </mxCell>
        <mxCell id="5gJW-pD-rKpjJvPLWltT-8" value="&lt;u&gt;INCORPORAT&lt;/u&gt;" style="text;html=1;align=center;verticalAlign=middle;resizable=0;points=[];autosize=1;strokeColor=none;fillColor=none;fontSize=40;" vertex="1" parent="1">
          <mxGeometry x="60" y="660" width="280" height="50" as="geometry" />
        </mxCell>
        <mxCell id="5gJW-pD-rKpjJvPLWltT-9" value="SENTIENTULUI" style="text;html=1;align=center;verticalAlign=middle;resizable=0;points=[];autosize=1;strokeColor=none;fillColor=none;fontSize=40;" vertex="1" parent="1">
          <mxGeometry x="50" y="910" width="300" height="50" as="geometry" />
        </mxCell>
        <mxCell id="5gJW-pD-rKpjJvPLWltT-10" value="" style="rounded=0;whiteSpace=wrap;html=1;fontSize=40;strokeWidth=2;fillColor=none;" vertex="1" parent="1">
          <mxGeometry x="-50" y="475" width="150" height="60" as="geometry" />
        </mxCell>
        <mxCell id="5gJW-pD-rKpjJvPLWltT-11" value="" style="rounded=0;whiteSpace=wrap;html=1;fontSize=40;strokeWidth=2;fillColor=none;" vertex="1" parent="1">
          <mxGeometry x="290" y="475" width="160" height="60" as="geometry" />
        </mxCell>
        <mxCell id="5gJW-pD-rKpjJvPLWltT-12" value="" style="rounded=0;whiteSpace=wrap;html=1;fontSize=40;strokeWidth=2;fillColor=none;" vertex="1" parent="1">
          <mxGeometry x="50" y="900" width="300" height="60" as="geometry" />
        </mxCell>
        <mxCell id="5gJW-pD-rKpjJvPLWltT-13" value="" style="endArrow=none;html=1;fontSize=40;exitX=1;exitY=0.5;exitDx=0;exitDy=0;entryX=0;entryY=0.5;entryDx=0;entryDy=0;curved=1;" edge="1" parent="1" source="5gJW-pD-rKpjJvPLWltT-10" target="5gJW-pD-rKpjJvPLWltT-11">
          <mxGeometry width="50" height="50" relative="1" as="geometry">
            <mxPoint x="300" y="580" as="sourcePoint" />
            <mxPoint x="350" y="530" as="targetPoint" />
            <Array as="points">
              <mxPoint x="130" y="490" />
              <mxPoint x="250" y="520" />
            </Array>
          </mxGeometry>
        </mxCell>
        <mxCell id="5gJW-pD-rKpjJvPLWltT-14" value="" style="endArrow=none;html=1;fontSize=40;curved=1;exitX=0.5;exitY=1;exitDx=0;exitDy=0;entryX=0.25;entryY=0;entryDx=0;entryDy=0;" edge="1" parent="1" source="5gJW-pD-rKpjJvPLWltT-10" target="5gJW-pD-rKpjJvPLWltT-12">
          <mxGeometry width="50" height="50" relative="1" as="geometry">
            <mxPoint x="300" y="580" as="sourcePoint" />
            <mxPoint x="350" y="530" as="targetPoint" />
            <Array as="points">
              <mxPoint x="-20" y="600" />
              <mxPoint x="60" y="660" />
              <mxPoint x="10" y="740" />
              <mxPoint x="90" y="780" />
              <mxPoint x="70" y="880" />
            </Array>
          </mxGeometry>
        </mxCell>
        <mxCell id="5gJW-pD-rKpjJvPLWltT-15" value="" style="endArrow=none;html=1;fontSize=40;curved=1;entryX=0.5;entryY=1;entryDx=0;entryDy=0;exitX=0.75;exitY=0;exitDx=0;exitDy=0;" edge="1" parent="1" source="5gJW-pD-rKpjJvPLWltT-12" target="5gJW-pD-rKpjJvPLWltT-11">
          <mxGeometry width="50" height="50" relative="1" as="geometry">
            <mxPoint x="300" y="580" as="sourcePoint" />
            <mxPoint x="350" y="530" as="targetPoint" />
            <Array as="points">
              <mxPoint x="340" y="880" />
              <mxPoint x="300" y="760" />
              <mxPoint x="390" y="720" />
              <mxPoint x="340" y="630" />
              <mxPoint x="390" y="570" />
            </Array>
          </mxGeometry>
        </mxCell>
        <mxCell id="5gJW-pD-rKpjJvPLWltT-17" value="&lt;font style=&quot;font-size: 40px&quot;&gt;$$\aleph = (\psi(\dots),\frac{\delta z}{\delta x})$$&lt;/font&gt;" style="text;html=1;align=center;verticalAlign=middle;resizable=0;points=[];autosize=1;strokeColor=none;fillColor=none;fontSize=25;" vertex="1" parent="1">
          <mxGeometry x="280" y="535" width="860" height="40" as="geometry" />
        </mxCell>
        <mxCell id="5gJW-pD-rKpjJvPLWltT-18" value="$$\aleph_x = \alpha \frac{\delta z}{\delta x} + \beta \cdot \mathcal{i} \psi_{[x]}(...)$$" style="text;html=1;align=center;verticalAlign=middle;resizable=0;points=[];autosize=1;strokeColor=none;fillColor=none;fontSize=40;" vertex="1" parent="1">
          <mxGeometry x="60" y="660" width="1470" height="50" as="geometry" />
        </mxCell>
        <mxCell id="5gJW-pD-rKpjJvPLWltT-19" value="$$\frac{\delta e}{\delta o} \cdot \psi \rightarrow 0 = \beta \rightarrow \infty$$" style="text;html=1;align=center;verticalAlign=middle;resizable=0;points=[];autosize=1;strokeColor=none;fillColor=none;fontSize=40;" vertex="1" parent="1">
          <mxGeometry x="80" y="790" width="1330" height="50" as="geometry" />
        </mxCell>
        <mxCell id="5gJW-pD-rKpjJvPLWltT-20" value="" style="shape=partialRectangle;whiteSpace=wrap;html=1;bottom=1;right=1;left=1;top=0;fillColor=none;routingCenterX=-0.5;fontSize=40;strokeWidth=2;" vertex="1" parent="1">
          <mxGeometry x="550" y="870" width="390" height="30" as="geometry" />
        </mxCell>
        <mxCell id="5gJW-pD-rKpjJvPLWltT-21" value="$$\delta \rightarrow 0$$" style="text;html=1;align=center;verticalAlign=middle;resizable=0;points=[];autosize=1;strokeColor=none;fillColor=none;fontSize=40;" vertex="1" parent="1">
          <mxGeometry x="525" y="950" width="440" height="50" as="geometry" />
        </mxCell>
        <mxCell id="5gJW-pD-rKpjJvPLWltT-22" value="" style="endArrow=classic;html=1;fontSize=40;curved=1;" edge="1" parent="1">
          <mxGeometry width="50" height="50" relative="1" as="geometry">
            <mxPoint x="744.29" y="900" as="sourcePoint" />
            <mxPoint x="744.29" y="960" as="targetPoint" />
          </mxGeometry>
        </mxCell>
        <mxCell id="5gJW-pD-rKpjJvPLWltT-24" value="MAXIMUL&lt;br&gt;MONOPOLIST al&lt;br&gt;CATALOGULUI&lt;br&gt;COMPORTAMENTAL" style="text;html=1;align=center;verticalAlign=middle;resizable=0;points=[];autosize=1;strokeColor=none;fillColor=none;fontSize=20;" vertex="1" parent="1">
          <mxGeometry x="660" y="380" width="210" height="100" as="geometry" />
        </mxCell>
        <mxCell id="5gJW-pD-rKpjJvPLWltT-25" value="" style="endArrow=none;html=1;fontSize=20;curved=1;" edge="1" parent="1">
          <mxGeometry width="50" height="50" relative="1" as="geometry">
            <mxPoint x="650" y="480" as="sourcePoint" />
            <mxPoint x="870" y="480" as="targetPoint" />
          </mxGeometry>
        </mxCell>
        <mxCell id="5gJW-pD-rKpjJvPLWltT-26" value="" style="shape=curlyBracket;whiteSpace=wrap;html=1;rounded=1;fontSize=20;strokeWidth=2;fillColor=none;" vertex="1" parent="1">
          <mxGeometry x="640" y="385" width="20" height="95" as="geometry" />
        </mxCell>
        <mxCell id="5gJW-pD-rKpjJvPLWltT-27" value="" style="endArrow=classic;html=1;fontSize=20;curved=1;entryX=0.314;entryY=0.125;entryDx=0;entryDy=0;entryPerimeter=0;" edge="1" parent="1" target="5gJW-pD-rKpjJvPLWltT-17">
          <mxGeometry width="50" height="50" relative="1" as="geometry">
            <mxPoint x="640" y="430" as="sourcePoint" />
            <mxPoint x="560" y="450" as="targetPoint" />
            <Array as="points">
              <mxPoint x="560" y="460" />
            </Array>
          </mxGeometry>
        </mxCell>
        <mxCell id="5gJW-pD-rKpjJvPLWltT-28" value="&lt;font style=&quot;font-size: 40px&quot;&gt;$$\aleph_{[x]}=\alpha \frac{\delta z}{\delta x} + \beta \cdot \psi_{x}(...)$$&lt;/font&gt;" style="text;html=1;align=center;verticalAlign=middle;resizable=0;points=[];autosize=1;strokeColor=none;fillColor=none;fontSize=20;" vertex="1" parent="1">
          <mxGeometry x="855" y="485" width="1270" height="40" as="geometry" />
        </mxCell>
        <mxCell id="5gJW-pD-rKpjJvPLWltT-29" value="$$\alpha^2 + \beta^2=1$$" style="text;html=1;align=center;verticalAlign=middle;resizable=0;points=[];autosize=1;strokeColor=none;fillColor=none;fontSize=40;" vertex="1" parent="1">
          <mxGeometry x="1120" y="600" width="480" height="50" as="geometry" />
        </mxCell>
        <mxCell id="5gJW-pD-rKpjJvPLWltT-30" value="" style="shape=partialRectangle;whiteSpace=wrap;html=1;bottom=1;right=1;left=1;top=0;fillColor=none;routingCenterX=-0.5;fontSize=40;strokeWidth=2;" vertex="1" parent="1">
          <mxGeometry x="1240" y="650" width="240" height="30" as="geometry" />
        </mxCell>
        <mxCell id="5gJW-pD-rKpjJvPLWltT-31" value="CONSERVAREA&lt;br&gt;DISPONIBILULUI&lt;br&gt;de ATENTIE" style="text;html=1;align=center;verticalAlign=middle;resizable=0;points=[];autosize=1;strokeColor=none;fillColor=none;fontSize=40;" vertex="1" parent="1">
          <mxGeometry x="1440" y="740" width="330" height="150" as="geometry" />
        </mxCell>
        <mxCell id="5gJW-pD-rKpjJvPLWltT-32" value="" style="shape=partialRectangle;whiteSpace=wrap;html=1;bottom=1;right=1;left=1;top=0;fillColor=none;routingCenterX=-0.5;fontSize=40;strokeWidth=2;rotation=90;" vertex="1" parent="1">
          <mxGeometry x="1511.25" y="668.75" width="152.5" height="295" as="geometry" />
        </mxCell>
        <mxCell id="5gJW-pD-rKpjJvPLWltT-33" value="" style="endArrow=classic;html=1;fontSize=40;curved=1;exitX=0.5;exitY=1;exitDx=0;exitDy=0;entryX=0.5;entryY=1;entryDx=0;entryDy=0;" edge="1" parent="1" source="5gJW-pD-rKpjJvPLWltT-32" target="5gJW-pD-rKpjJvPLWltT-30">
          <mxGeometry width="50" height="50" relative="1" as="geometry">
            <mxPoint x="1300" y="600" as="sourcePoint" />
            <mxPoint x="1350" y="550" as="targetPoint" />
            <Array as="points">
              <mxPoint x="1370" y="820" />
            </Array>
          </mxGeometry>
        </mxCell>
      </root>
    </mxGraphModel>
  </diagram>
</mxfile>
